<?xml version="1.0" standalone="no"?>
<!DOCTYPE svg PUBLIC "-//W3C//DTD SVG 20010904//EN"
 "http://www.w3.org/TR/2001/REC-SVG-20010904/DTD/svg10.dtd">
<svg version="1.0" xmlns="http://www.w3.org/2000/svg"
 width="270.000000pt" height="322.000000pt" viewBox="0 0 270.000000 322.000000"
 preserveAspectRatio="xMidYMid meet">

<g transform="translate(0.000000,322.000000) scale(0.100000,-0.100000)"
fill="#000000" stroke="none">
<path d="M1300 2584 l0 -356 -49 -47 c-79 -74 -88 -155 -27 -236 l26 -33 0
-363 c1 -239 -3 -366 -10 -373 -7 -7 -10 -6 -10 2 0 15 -92 16 -107 1 -8 -8
-13 -8 -17 0 -5 7 -61 11 -161 11 -122 0 -154 3 -158 14 -3 8 0 21 6 29 10 13
40 17 155 19 l144 3 29 33 c39 44 39 89 0 131 l-29 31 -155 0 c-175 0 -221
-10 -275 -63 -67 -64 -93 -150 -68 -230 29 -96 98 -156 194 -166 l57 -6 7 -53
c12 -84 52 -148 111 -179 24 -12 27 -18 22 -43 -11 -51 21 -136 70 -185 43
-43 116 -75 172 -75 22 0 23 -3 23 -75 0 -86 15 -125 55 -143 33 -15 57 -15
90 0 40 18 55 57 55 143 0 72 1 75 23 75 44 0 122 30 160 61 53 43 80 101 82
173 2 46 6 61 21 69 61 32 114 122 114 195 l0 42 45 0 c192 0 291 230 162 376
-64 73 -101 84 -283 84 -88 0 -164 -5 -175 -10 -24 -13 -49 -61 -49 -94 0 -14
13 -40 29 -58 l29 -33 146 -3 c149 -4 174 -10 160 -46 -5 -14 -29 -16 -168
-18 -88 0 -186 -2 -216 -3 -30 0 -62 0 -70 2 -13 4 -15 51 -12 366 3 339 4
363 22 382 34 37 52 94 45 144 -6 38 -16 55 -56 94 l-49 47 0 150 0 150 180 0
180 0 0 55 0 55 -180 0 -180 0 0 100 0 100 200 0 200 0 0 55 0 55 -255 0 -255
0 0 -356z m115 -457 c17 -14 28 -36 32 -62 4 -36 1 -46 -32 -85 l-36 -44 3
-378 c3 -349 2 -377 -14 -372 -9 2 -19 0 -23 -6 -21 -34 -25 32 -25 382 l0
381 -35 38 c-21 23 -35 49 -35 65 0 31 24 80 47 93 32 18 90 13 118 -12z
m-351 -750 c10 -7 17 -22 14 -33 -3 -17 -15 -19 -148 -24 -183 -6 -210 -20
-210 -105 0 -27 8 -44 29 -66 27 -27 35 -29 101 -29 l71 0 -27 -35 c-22 -29
-33 -35 -66 -35 -72 0 -143 48 -167 113 -33 87 27 195 123 217 56 14 260 11
280 -3z m898 -15 c110 -68 115 -212 11 -282 l-36 -25 -448 -5 c-429 -5 -448
-6 -469 -25 -49 -44 -45 -115 8 -154 l27 -20 -22 -22 c-20 -20 -25 -21 -46
-10 -35 19 -67 81 -67 131 0 61 38 123 93 149 42 20 57 21 476 21 l433 0 29
29 c21 22 29 39 29 66 0 85 -27 99 -210 105 -133 5 -145 7 -148 24 -8 40 23
48 168 44 120 -3 139 -6 172 -26z m-714 -410 l3 -33 -92 3 c-76 3 -94 6 -103
21 -20 33 17 48 109 45 l80 -3 3 -33z m130 1 c3 -31 1 -33 -27 -33 -29 0 -31
3 -31 36 0 33 2 35 28 32 22 -2 28 -8 30 -35z m258 23 c15 -12 17 -18 8 -33
-9 -15 -27 -19 -103 -21 l-91 -3 0 29 c0 16 3 32 7 35 13 14 159 7 179 -7z
m142 -29 c4 -47 -28 -107 -71 -133 -29 -17 -59 -20 -280 -24 l-249 -5 -29 -33
c-40 -44 -40 -93 0 -133 28 -27 34 -29 113 -29 91 0 123 -13 116 -46 -3 -17
-13 -19 -109 -19 -96 0 -109 2 -142 25 -42 28 -77 91 -77 136 1 45 34 108 71
135 33 23 40 24 279 29 215 4 249 7 273 23 28 18 49 57 46 86 -3 29 1 32 29
29 23 -3 27 -8 30 -41z m-528 -262 c0 -28 -4 -35 -19 -35 -11 0 -27 7 -35 16
-22 21 -4 54 29 54 22 0 25 -4 25 -35z m130 0 c0 -32 -2 -35 -30 -35 -28 0
-30 3 -30 35 0 32 2 35 30 35 28 0 30 -3 30 -35z m134 12 c9 -15 7 -21 -8 -33
-36 -26 -56 -18 -56 22 0 32 2 35 26 32 15 -2 32 -11 38 -21z m136 -14 c0 -81
-85 -163 -168 -163 -30 0 -32 2 -32 35 0 33 2 35 36 35 49 0 94 45 94 94 0 34
2 36 35 36 34 0 35 -1 35 -37z m-272 -310 c-3 -76 -4 -78 -28 -78 -24 0 -25 2
-28 78 l-3 77 31 0 31 0 -3 -77z"/>
<path d="M384 2086 c-37 -37 -43 -70 -20 -115 19 -36 55 -51 125 -51 l58 0 6
-42 c9 -66 41 -88 128 -88 l69 0 0 -35 c0 -24 9 -45 29 -67 29 -32 31 -33 125
-36 92 -4 96 -5 96 -27 0 -35 39 -75 97 -101 59 -27 83 -23 83 12 0 20 -10 29
-55 49 l-56 24 3 53 3 53 -125 5 c-119 5 -125 6 -128 27 -2 16 5 26 28 38 23
12 30 22 28 38 -3 21 -8 22 -117 25 -64 1 -121 8 -128 14 -23 19 -15 45 17 57
32 11 40 40 17 59 -7 6 -64 13 -128 14 l-114 3 0 25 0 25 270 3 c195 2 276 -1
293 -9 12 -7 35 -41 52 -75 38 -80 86 -136 114 -132 32 5 31 34 -3 77 -17 21
-40 60 -51 87 -26 60 -44 81 -92 105 -34 17 -62 19 -314 19 l-276 0 -34 -34z"/>
<path d="M1688 2100 c-40 -22 -67 -55 -92 -113 -9 -21 -30 -56 -47 -78 -34
-43 -35 -72 -3 -77 27 -4 79 54 110 123 46 100 31 96 345 93 l274 -3 0 -25 0
-25 -114 -3 c-64 -1 -121 -8 -128 -14 -23 -19 -15 -48 17 -59 22 -8 30 -17 30
-35 0 -30 -15 -33 -150 -37 -100 -2 -105 -3 -108 -24 -2 -16 5 -26 28 -38 23
-12 30 -22 28 -38 -3 -21 -9 -22 -128 -27 l-125 -5 3 -53 3 -53 -56 -24 c-57
-26 -70 -50 -41 -74 11 -9 26 -6 68 12 59 26 98 67 98 102 0 22 4 23 96 27 94
3 96 4 125 36 20 22 29 43 29 67 l0 35 71 0 c65 0 73 2 100 29 21 22 29 39 29
65 l0 36 60 0 c70 0 111 17 128 55 20 44 14 75 -22 111 l-34 34 -278 0 c-256
-1 -282 -2 -316 -20z"/>
</g>
</svg>
