<?xml version="1.0" standalone="no"?>
<!DOCTYPE svg PUBLIC "-//W3C//DTD SVG 20010904//EN"
 "http://www.w3.org/TR/2001/REC-SVG-20010904/DTD/svg10.dtd">
<svg version="1.0" xmlns="http://www.w3.org/2000/svg"
 width="494.000000pt" height="492.000000pt" viewBox="0 0 494.000000 492.000000"
 preserveAspectRatio="xMidYMid meet">

<g transform="translate(0.000000,492.000000) scale(0.100000,-0.100000)"
fill="#000000" stroke="none">
<path d="M2548 4600 c-77 -41 -122 -143 -99 -228 13 -48 60 -106 104 -128 46
-24 121 -20 172 11 58 33 62 42 33 72 l-25 25 -34 -21 c-69 -42 -138 -19 -163
54 -17 49 -6 91 34 128 35 31 75 35 122 11 29 -15 31 -14 54 7 13 12 24 26 24
30 0 5 -20 20 -43 34 -54 31 -125 33 -179 5z"/>
<path d="M2208 4603 c-24 -4 -28 -9 -28 -39 0 -22 5 -34 14 -34 16 0 22 -30
32 -151 4 -59 3 -89 -5 -93 -6 -4 -11 -20 -11 -37 0 -29 0 -29 58 -29 31 0 63
4 70 9 17 10 12 67 -5 64 -16 -4 -13 -18 -27 125 -9 98 -9 122 1 122 8 0 13
13 13 35 0 35 0 35 -42 34 -24 -1 -55 -4 -70 -6z"/>
<path d="M2923 4572 c-3 -14 -1 -34 6 -44 19 -30 -17 -239 -41 -246 -11 -2
-18 -14 -18 -28 0 -13 -1 -27 -2 -31 -1 -5 27 -13 62 -20 49 -8 67 -8 72 0 12
19 9 55 -4 59 -9 3 -7 33 7 123 16 95 23 119 37 123 13 3 18 14 18 37 0 31 0
32 -65 41 -65 10 -66 10 -72 -14z"/>
<path d="M1842 4543 c-16 -3 -21 -10 -18 -21 3 -9 19 -91 37 -182 17 -91 35
-169 39 -173 4 -5 58 1 119 14 116 23 119 25 105 75 -6 21 -7 21 -77 8 -40 -8
-75 -14 -78 -14 -3 0 -18 68 -34 150 -31 163 -27 156 -93 143z"/>
<path d="M3187 4543 c-2 -5 -7 -20 -11 -35 -6 -26 -4 -29 39 -40 25 -7 45 -16
45 -20 0 -4 -18 -69 -40 -144 -22 -75 -40 -140 -40 -144 0 -6 72 -32 76 -27 1
1 20 67 44 147 23 80 43 146 44 147 1 1 22 -4 48 -11 l45 -14 11 34 c12 41 20
37 -141 84 -117 33 -114 33 -120 23z"/>
<path d="M1563 4457 c-50 -18 -95 -35 -98 -39 -6 -6 100 -344 112 -357 6 -8
215 63 220 75 2 6 -1 22 -6 37 l-10 26 -72 -24 c-40 -14 -74 -25 -75 -25 -4 0
-24 63 -24 76 0 7 26 21 58 32 52 18 57 21 55 47 -3 43 -15 47 -78 25 -62 -21
-70 -20 -80 20 -6 24 -2 27 64 48 71 23 76 28 65 70 -8 28 -19 27 -131 -11z"/>
<path d="M3574 4423 c2 -10 12 -65 21 -123 l17 -105 -36 -79 c-20 -43 -36 -80
-36 -82 0 -5 58 -34 67 -34 4 0 24 36 43 80 l35 79 103 63 c56 35 102 66 102
69 0 3 -19 13 -42 23 l-43 16 -55 -34 c-30 -19 -58 -32 -61 -30 -4 2 -10 31
-14 64 -7 64 -13 72 -69 95 -36 15 -37 15 -32 -2z"/>
<path d="M1232 4319 c-95 -45 -103 -51 -96 -71 6 -22 151 -319 158 -326 2 -1
20 5 39 14 l36 17 -35 68 c-19 38 -34 72 -34 77 0 5 27 21 60 37 33 16 60 30
60 32 0 9 -31 63 -36 63 -2 0 -31 -13 -63 -29 l-58 -30 -12 25 c-6 14 -11 29
-11 35 0 5 29 23 65 39 36 16 65 34 65 39 0 15 -22 61 -29 60 -3 0 -52 -23
-109 -50z"/>
<path d="M2345 3366 c-41 -18 -82 -68 -95 -117 -13 -48 -2 -97 34 -144 l26
-33 0 -363 c1 -239 -3 -366 -10 -373 -7 -7 -10 -6 -10 2 0 15 -92 16 -107 1
-8 -8 -13 -8 -17 0 -5 7 -61 11 -161 11 -122 0 -154 3 -158 14 -3 8 0 21 6 29
10 13 40 17 155 19 l144 3 29 33 c39 44 39 89 0 131 l-29 31 -155 0 c-175 0
-221 -10 -275 -63 -67 -64 -93 -150 -68 -230 29 -96 98 -156 194 -166 l57 -6
7 -53 c12 -84 52 -148 111 -179 24 -12 27 -18 22 -43 -11 -51 21 -136 70 -185
43 -43 116 -75 172 -75 22 0 23 -3 23 -75 0 -46 6 -87 14 -104 35 -66 137 -66
172 0 8 17 14 58 14 104 0 72 1 75 23 75 44 0 122 30 160 61 53 43 80 101 82
173 2 46 6 61 21 69 61 32 114 122 114 195 l0 42 45 0 c192 0 291 230 162 376
-64 73 -101 84 -283 84 -88 0 -164 -5 -175 -10 -24 -13 -49 -61 -49 -94 0 -14
13 -40 29 -58 l29 -33 146 -3 c149 -4 174 -10 160 -46 -5 -14 -29 -16 -168
-18 -88 0 -186 -2 -216 -3 -30 0 -62 0 -70 2 -13 4 -15 51 -12 366 3 339 4
363 22 382 11 11 26 38 35 59 55 131 -89 269 -220 212z m130 -79 c17 -14 28
-36 32 -62 4 -36 1 -46 -32 -85 l-36 -44 3 -378 c3 -349 2 -377 -14 -372 -9 2
-19 0 -23 -6 -21 -34 -25 32 -25 382 l0 381 -35 38 c-21 23 -35 49 -35 65 0
31 24 80 47 93 32 18 90 13 118 -12z m-351 -750 c10 -7 17 -22 14 -33 -3 -17
-15 -19 -148 -24 -183 -6 -210 -20 -210 -105 0 -27 8 -44 29 -66 27 -27 35
-29 101 -29 l71 0 -27 -35 c-22 -29 -33 -35 -66 -35 -72 0 -143 48 -167 113
-33 87 27 195 123 217 56 14 260 11 280 -3z m898 -15 c110 -68 115 -212 11
-282 l-36 -25 -448 -5 c-429 -5 -448 -6 -469 -25 -49 -44 -45 -115 8 -154 l27
-20 -22 -22 c-20 -20 -25 -21 -46 -10 -35 19 -67 81 -67 131 0 61 38 123 93
149 42 20 57 21 476 21 l433 0 29 29 c21 22 29 39 29 66 0 85 -27 99 -210 105
-133 5 -145 7 -148 24 -8 40 23 48 168 44 120 -3 139 -6 172 -26z m-714 -410
l3 -33 -92 3 c-76 3 -94 6 -103 21 -20 33 17 48 109 45 l80 -3 3 -33z m130 1
c3 -31 1 -33 -27 -33 -29 0 -31 3 -31 36 0 33 2 35 28 32 22 -2 28 -8 30 -35z
m258 23 c15 -12 17 -18 8 -33 -9 -15 -27 -19 -103 -21 l-91 -3 0 29 c0 16 3
32 7 35 13 14 159 7 179 -7z m142 -29 c4 -47 -28 -107 -71 -133 -29 -17 -59
-20 -280 -24 l-249 -5 -29 -33 c-40 -44 -40 -93 0 -133 28 -27 34 -29 113 -29
91 0 123 -13 116 -46 -3 -17 -13 -19 -109 -19 -96 0 -109 2 -142 25 -42 28
-77 91 -77 136 1 45 34 108 71 135 33 23 40 24 279 29 215 4 249 7 273 23 28
18 49 57 46 86 -3 29 1 32 29 29 23 -3 27 -8 30 -41z m-528 -262 c0 -28 -4
-35 -19 -35 -11 0 -27 7 -35 16 -22 21 -4 54 29 54 22 0 25 -4 25 -35z m130 0
c0 -32 -2 -35 -30 -35 -28 0 -30 3 -30 35 0 32 2 35 30 35 28 0 30 -3 30 -35z
m134 12 c9 -15 7 -21 -8 -33 -36 -26 -56 -18 -56 22 0 32 2 35 26 32 15 -2 32
-11 38 -21z m136 -14 c0 -81 -85 -163 -168 -163 -30 0 -32 2 -32 35 0 33 2 35
36 35 49 0 94 45 94 94 0 34 2 36 35 36 34 0 35 -1 35 -37z m-272 -310 c-3
-76 -4 -78 -28 -78 -24 0 -25 2 -28 78 l-3 77 31 0 31 0 -3 -77z"/>
<path d="M1444 3246 c-37 -37 -43 -70 -20 -115 19 -36 55 -51 125 -51 l58 0 6
-42 c9 -66 41 -88 128 -88 l69 0 0 -35 c0 -24 9 -45 29 -67 29 -32 31 -33 125
-36 92 -4 96 -5 96 -27 0 -35 39 -75 97 -101 59 -27 83 -23 83 12 0 20 -10 29
-55 49 l-56 24 3 53 3 53 -125 5 c-119 5 -125 6 -128 27 -2 16 5 26 28 38 23
12 30 22 28 38 -3 21 -8 22 -117 25 -64 1 -121 8 -128 14 -23 19 -15 45 17 57
32 11 40 40 17 59 -7 6 -64 13 -128 14 l-114 3 0 25 0 25 270 3 c195 2 276 -1
293 -9 12 -7 35 -41 52 -75 38 -80 86 -136 114 -132 32 5 31 34 -3 77 -17 21
-40 60 -51 87 -26 60 -44 81 -92 105 -34 17 -62 19 -314 19 l-276 0 -34 -34z"/>
<path d="M2748 3260 c-40 -22 -67 -55 -92 -113 -9 -21 -30 -56 -47 -78 -34
-43 -35 -72 -3 -77 27 -4 79 54 110 123 46 100 31 96 345 93 l274 -3 0 -25 0
-25 -114 -3 c-64 -1 -121 -8 -128 -14 -23 -19 -15 -48 17 -59 22 -8 30 -17 30
-35 0 -30 -15 -33 -150 -37 -100 -2 -105 -3 -108 -24 -2 -16 5 -26 28 -38 23
-12 30 -22 28 -38 -3 -21 -9 -22 -128 -27 l-125 -5 3 -53 3 -53 -56 -24 c-57
-26 -70 -50 -41 -74 11 -9 26 -6 68 12 59 26 98 67 98 102 0 22 4 23 96 27 94
3 96 4 125 36 20 22 29 43 29 67 l0 35 71 0 c65 0 73 2 100 29 21 22 29 39 29
65 l0 36 60 0 c70 0 111 17 128 55 20 44 14 75 -22 111 l-34 34 -278 0 c-256
-1 -282 -2 -316 -20z"/>
<path d="M4305 2416 c-34 -52 -28 -182 11 -221 13 -12 44 -15 169 -15 l155 0
17 27 c24 37 30 148 10 196 l-16 37 -165 0 c-163 0 -166 0 -181 -24z"/>
<path d="M272 2387 c-31 -37 -36 -143 -10 -209 l10 -28 168 0 c144 0 170 2
181 17 22 25 25 163 5 202 l-17 31 -163 0 c-121 0 -166 -3 -174 -13z"/>
<path d="M954 1221 c8 -12 -91 -84 -104 -76 -15 9 -12 -7 5 -29 12 -15 15 -16
15 -5 0 9 21 31 47 49 l46 33 -29 -51 c-15 -28 -25 -54 -22 -58 4 -3 28 1 54
10 26 9 49 14 51 12 8 -8 -70 -67 -83 -62 -18 7 -18 -3 2 -25 14 -16 18 -14
61 32 26 28 52 48 60 45 18 -7 16 9 -3 25 -13 11 -24 10 -64 -4 -26 -9 -50
-17 -54 -17 -3 0 8 21 24 46 23 36 27 51 19 65 -5 11 -14 19 -20 19 -6 0 -8
-4 -5 -9z"/>
<path d="M4042 1178 c-14 -14 -17 -32 -3 -24 7 4 31 -34 31 -49 0 -3 -13 -5
-30 -5 -22 0 -30 5 -30 18 -1 14 -4 13 -22 -8 l-20 -25 48 -6 c63 -7 84 -17
93 -41 7 -19 8 -18 25 7 15 23 16 27 3 22 -21 -8 -49 25 -67 79 -12 36 -18 42
-28 32z"/>
<path d="M1133 1011 c1 -5 -15 -30 -36 -55 -26 -32 -42 -44 -55 -39 -9 3 2
-14 25 -38 42 -42 43 -43 60 -25 17 18 17 19 -1 12 -12 -4 -26 0 -38 10 -17
16 -17 18 -2 36 22 23 33 23 42 -3 l8 -20 18 20 c19 21 19 21 -2 21 -29 0 -33
11 -12 37 17 22 18 22 35 3 9 -10 14 -24 10 -29 -3 -6 -2 -11 3 -11 24 0 18
30 -12 59 -32 31 -48 39 -43 22z"/>
<path d="M3877 989 c-32 -35 -33 -41 -7 -64 17 -15 24 -16 46 -7 34 16 61 15
67 -2 8 -20 -13 -36 -47 -36 -28 0 -29 -1 -12 -19 18 -19 18 -19 47 6 32 29
36 50 15 78 -13 17 -17 18 -55 5 -31 -10 -45 -10 -53 -2 -16 16 10 45 34 39
21 -6 24 6 5 21 -9 8 -19 3 -40 -19z"/>
<path d="M1282 879 c8 -20 -46 -97 -74 -108 -18 -6 -15 -10 21 -34 50 -34 85
-34 116 -2 45 44 31 85 -49 146 -18 12 -19 12 -14 -2z m50 -46 c31 -28 19 -76
-27 -100 -22 -12 -65 0 -65 17 0 11 61 99 69 100 3 0 13 -7 23 -17z"/>
<path d="M3714 846 c-3 -9 4 -40 15 -71 12 -31 21 -65 21 -77 0 -21 0 -21 21
-2 17 15 18 20 6 22 -27 5 -28 31 -2 48 29 19 58 12 48 -12 -5 -15 -3 -14 22
2 19 12 23 20 14 23 -8 2 -42 22 -77 43 -49 30 -64 35 -68 24z m66 -57 c0 -10
-28 -24 -35 -18 -2 2 -7 17 -11 33 l-7 28 27 -17 c14 -10 26 -21 26 -26z"/>
<path d="M1472 737 c5 -20 -51 -107 -70 -107 -14 -1 -13 -4 7 -20 29 -25 40
-25 35 -2 -5 21 53 115 66 107 6 -3 10 -2 10 3 0 5 -11 14 -25 20 -20 9 -25 9
-23 -1z"/>
<path d="M3526 722 c-28 -19 -35 -28 -23 -30 20 -4 81 -98 72 -112 -10 -16 3
-12 45 16 39 26 50 47 30 59 -5 3 -10 -3 -10 -14 0 -11 -9 -25 -19 -30 -15 -9
-22 -6 -34 13 -18 26 -13 36 15 36 16 0 17 3 8 20 -11 21 -11 21 -30 -2 l-18
-23 -13 28 c-11 24 -11 30 2 37 8 5 22 7 33 4 13 -4 17 -2 14 7 -8 23 -31 20
-72 -9z"/>
<path d="M1581 624 c-26 -33 -27 -85 -3 -106 24 -22 54 -29 72 -18 12 8 9 10
-12 10 -55 0 -75 55 -37 104 31 39 79 30 79 -16 0 -10 5 -18 10 -18 6 0 10 4
10 9 0 5 3 17 7 27 4 11 3 15 -4 11 -6 -4 -16 0 -23 8 -21 25 -76 19 -99 -11z"/>
<path d="M3245 581 c-22 -11 -34 -20 -27 -20 17 -1 63 -106 56 -126 -5 -11 5
-10 45 8 48 21 62 39 41 52 -5 3 -10 0 -10 -8 0 -7 -11 -19 -24 -25 -21 -9
-25 -7 -35 15 -13 29 0 46 26 36 15 -6 17 6 3 27 -9 13 -12 13 -21 -2 -14 -25
-24 -22 -37 7 -10 21 -9 27 3 31 9 4 24 4 36 1 13 -3 19 -1 16 6 -6 19 -29 18
-72 -2z"/>
<path d="M1798 572 c11 -7 9 -19 -7 -62 -11 -29 -26 -57 -33 -61 -15 -9 -11
-14 21 -24 16 -5 21 -4 17 4 -9 15 22 102 42 118 19 16 15 19 -23 28 -20 4
-25 3 -17 -3z"/>
<path d="M1945 520 c11 -17 -16 -121 -33 -127 -11 -5 -11 -7 0 -14 17 -12 41
-11 34 0 -8 12 16 113 24 104 4 -5 15 -36 25 -70 10 -35 24 -63 31 -63 7 0 18
24 25 56 7 31 18 62 25 69 15 15 8 25 -17 25 -12 0 -16 -5 -13 -14 3 -8 0 -34
-7 -57 l-12 -44 -20 65 c-23 76 -17 66 -46 75 -17 5 -22 4 -16 -5z"/>
<path d="M3027 508 c-31 -8 -35 -12 -23 -22 8 -6 22 -35 30 -65 13 -43 13 -56
4 -63 -19 -12 3 -10 43 3 52 18 69 37 69 81 0 68 -38 88 -123 66z m85 -25 c26
-23 24 -78 -4 -97 -12 -9 -26 -16 -30 -16 -6 0 -38 98 -38 119 0 17 51 13 72
-6z"/>
<path d="M2186 461 c14 -15 -1 -122 -19 -133 -17 -10 -8 -15 49 -21 46 -5 53
-3 57 14 3 10 1 19 -4 19 -5 0 -9 -4 -9 -10 0 -5 -14 -10 -31 -10 -29 0 -31 2
-24 27 9 37 12 39 35 25 18 -11 20 -10 19 15 0 16 -3 22 -6 16 -5 -15 -29 -17
-37 -5 -9 14 6 52 19 52 8 0 21 -7 29 -16 15 -14 16 -14 16 5 0 16 -6 21 -27
21 -16 0 -39 3 -53 6 -19 5 -22 4 -14 -5z"/>
<path d="M2825 458 c-2 -7 -8 -38 -14 -68 -5 -30 -13 -63 -16 -72 -8 -20 -1
-21 30 -8 11 5 14 9 8 9 -25 2 -14 39 12 45 33 8 48 -1 42 -25 -4 -13 0 -19
11 -19 20 0 54 20 35 20 -7 0 -28 29 -48 65 -36 64 -51 77 -60 53z m45 -69 c0
-4 -9 -9 -20 -12 -17 -4 -20 0 -20 31 l0 37 20 -25 c11 -14 20 -28 20 -31z"/>
<path d="M2620 424 c-6 -14 -10 -27 -10 -29 0 -2 -5 -16 -11 -32 l-11 -28 -20
53 c-16 44 -23 52 -45 52 -22 0 -24 -2 -13 -15 13 -15 9 -89 -5 -127 -5 -14
-2 -18 13 -18 12 0 24 5 27 10 3 6 1 10 -4 10 -7 0 -11 23 -10 58 l0 57 24
-52 c13 -29 28 -53 34 -53 6 0 18 26 28 58 l17 57 7 -55 c3 -31 2 -61 -4 -67
-7 -10 -1 -13 23 -13 27 0 30 3 21 14 -18 22 -26 113 -11 131 11 13 9 15 -14
15 -19 0 -29 -7 -36 -26z"/>
</g>
</svg>
